<?xml version="1.0" encoding="UTF-8"?><svg id="Layer_2" xmlns="http://www.w3.org/2000/svg" xmlns:xlink="http://www.w3.org/1999/xlink" viewBox="0 0 180.72 136"><defs><style>.cls-1{fill:url(#linear-gradient);}.cls-2{fill:#80428f;}.cls-3{fill:url(#linear-gradient-2);}</style><linearGradient id="linear-gradient" x1="0" y1="73.19" x2="180.72" y2="73.19" gradientTransform="matrix(1, 0, 0, 1, 0, 0)" gradientUnits="userSpaceOnUse"><stop offset="0" stop-color="#5d4695"/><stop offset="1" stop-color="#bf3182"/></linearGradient><linearGradient id="linear-gradient-2" x1="56.7" y1=".52" x2="56.7" y2="141.86" gradientTransform="matrix(1, 0, 0, 1, 0, 0)" gradientUnits="userSpaceOnUse"><stop offset="0" stop-color="#f1af54"/><stop offset="1" stop-color="#e16942"/></linearGradient></defs><g id="Layer_1-2"><g><path class="cls-1" d="M180.48,121.52c-13.73-7.46-27.76-14.39-41.99-20.9l-10.7-4.82-10.79-4.64-10.84-4.5c-5.96-2.47-12.02-4.46-17.97-6.79,1.72-2.93,2.97-6.05,5.14-8.7,2.74-3.35,5.51-6.67,8.31-9.96,5.49-6.44,11.14-12.76,17.07-18.8,8.72-8.89,17.63-17.61,26.57-26.34,.82-.8,1.2-2.01,.89-3.19-.45-1.77-2.25-2.84-4.03-2.39l-.05,.02c-23.49,6.03-46.85,12.59-70.04,19.72-5.69,1.73-11.36,3.5-17.03,5.31l-1.47,.47c-5.4,1.72-10.8,3.48-16.18,5.28-11.51,3.85-22.96,7.89-34.33,12.14-1.36,.51-2.48,1.67-2.88,3.18-.67,2.5,.82,5.06,3.34,5.73l11.26,2.99,11.23,3.08,11.2,3.19,11.18,3.26,4.67,1.42,2.46,.75,4.02,1.22,11.11,3.52,5.38,1.74c-3.16,4.31-6.21,8.7-9.14,13.18-.86,1.33-1.74,2.63-2.58,3.97l-2.46,4.03c-1.66,2.67-3.25,5.42-4.71,8.28-.41,.8-.8,1.62-1.17,2.45-.97,2.12-1.81,4.32-2.46,6.61-.44,1.59-.77,3.22-.99,4.88-.05,.39-.09,.78-.11,1.18-.1,1.24-.12,2.5-.05,3.75v.13c0,2.37,4,4.75,6.02,3.83,1.74-.8,2.74-2.6,3.63-4.29,5.55-10.55,10.68-21.24,15.88-31.96,1.99-4.09,3.65-8.02,6.21-11.9,.25-.37,.53-.77,.97-.87,.31-.07,.64,.02,.94,.12,3.01,.96,6.08,1.89,9.04,2.97,2.9,1.06,5.84,2.03,8.77,3.04l11,3.91,10.95,4.04,10.93,4.11c14.54,5.56,29,11.4,43.43,17.37,.21,.08,.45,0,.57-.2,.11-.22,.03-.5-.19-.61Zm-99.53-44.58l-7.72-2.83-11.11-3.86-6.72-2.24-35.41-10.88c6.44-2.25,48.04-17.07,54.51-19.22,18.98-6.28,38.09-12.17,57.33-17.64-5.85,5.95-11.67,11.94-17.42,18.01-8.62,9.1-17.02,18.44-25.04,28.12-2.87,3.46-5.69,6.97-8.42,10.54Z"/><path class="cls-3" d="M67.42,11.25l-5.72,119.89c-.13,2.76-2.48,4.89-5.24,4.76-2.59-.12-4.63-2.22-4.76-4.76L45.98,11.25C45.69,5.33,50.27,.3,56.19,.01s10.95,4.29,11.24,10.21c.02,.34,.01,.69,0,1.02Z"/><path class="cls-2" d="M55.4,68.01l-9.7-2.98v9.05l2.67,.78,4.67,1.42,2.46,.75,4.02,1.22,4.73,1.5,.36-8.67-9.22-3.07Z"/></g></g></svg>